<svg xmlns="http://www.w3.org/2000/svg" width="512" height="512" title="Заполнение Справки БК - СправкаБК.РФ">
  <path fill="#0F548A" d="M253.44 4.35c3.39-.42 6.87.51 9.98 1.81 4.81 2.02 8.98 5.38 13.48 7.98 9.3 5.3 18.8 10.25 28.5 14.82a362.05 362.05 0 0 0 50.9 19.18c15.01 4.25 30.45 7.34 45.74 10.37 4.27.85 8.64 1.26 12.95 1.8 4.54.58 9.1 1.28 13.64 1.75 8.02.83 20.07.54 27.1 4.43a14.83 14.83 0 0 1 7.15 9.04c1.43 5.08.86 11 .84 16.26l-.03 16.1.03 24.98c0 4.63.18 9.34-.08 13.96-.41 7.44-1.49 14.99-2.25 22.41a532.6 532.6 0 0 1-18.28 96.97c-1.37 4.63-3 9.18-4.51 13.76-2.18 6.57-3.85 13.41-6.82 19.7-1.14 2.4-3.07 4.39-4.37 6.72l-.12.23c1.33 4.55 4.42 8.6 6.6 12.78 2.91 5.59 5.52 11.33 8.27 17 4 8.2 10.86 20.38 12.27 29.24.72 4.58-1.53 8.96-4.16 12.55-4.75 6.5-11.93 13.14-19.3 16.52-3.98 1.82-8.83 3-13.16 3.67a45.89 45.89 0 0 1-23.8-2.84c-1.84-.72-3.84-1.46-5.45-2.63-1.58 2.95-3.62 5.2-5.82 7.7-1.44 1.63-2.77 3.42-4.31 4.96a41.96 41.96 0 0 1-12 8.19c6.5 2.4 19.56 8.05 24.57 12.4 3.34 2.91 6.17 7.36 6.39 11.88.14 3.01-.89 6.37-3.03 8.53a13.5 13.5 0 0 1-7.47 3.7c-3.03.37-6.24-.47-9.31-.54-7.74-.18-15.5-.06-23.25-.06-7.77 0-15.6-.2-23.37.1-3.6.13-7 1.05-10.63 1-2.68 5.86-19.86 20.25-25.79 24.44-8.08 6.46-27.9 21.37-37.19 23.78-1.3.34-2.67.63-4 .56-5.1-.23-11.84-4.48-16.23-7.09-12.35-7.32-25.73-17.7-36.95-26.79-3.75-3.04-7.66-5.95-11.28-9.14-3.2-2.82-6.07-6-9.24-8.85-7.4-6.64-24.26-20.92-26.62-30.17-6.82.65-14.03.18-20.9.2-7.16 0-18.02.67-24.83-.55a19.56 19.56 0 0 1-8.18-3.42 19.1 19.1 0 0 1-6.69-9.16c-2-6.09-1.14-14.64-1.14-21.12v-38.5c0-3.34.37-7.05-.35-10.31-1.35-6.1-5.93-13.01-8.67-18.73a259.9 259.9 0 0 1-8.01-19.06 470.54 470.54 0 0 1-28.99-128.42c-.26-2.91-.73-5.81-.9-8.73-.22-4.07.03-8.16-.15-12.23-.16-3.25-.74-6.45-.87-9.7-.6-15.74-.32-31.5.85-47.2.31-4.08-.17-8.11.72-12.16.63-2.89 1.8-5.48 3.61-7.81 1.8-2.32 4.35-4.8 7.11-5.87 5.13-2 13.4-2.08 18.99-2.6 7.22-.67 14.55-1.47 21.71-2.64 14.75-2.42 29.68-4.31 44.22-7.8 14.16-3.4 27.9-8.3 41.44-13.62 7.72-3.04 15.76-6.2 23.2-9.87a658.99 658.99 0 0 0 28.2-14.71c4.1-2.25 7.98-5.1 12.26-6.98a27.5 27.5 0 0 1 7.78-2.17Z"/>
  <path fill="#FEFEFD" d="m190.42 99.38 86.19-.06 24.77-.02c5.57 0 11.39-.3 16.9.5-.13 10.94.32 21.88.12 32.82-.14 6.94-1.58 14.82-.52 21.6.7 4.5 2.6 8.92 5.63 12.37a20.34 20.34 0 0 0 9.81 6.13c5.37 1.48 11.82 1.01 17.36 1.01 10.37 0 21-.5 31.34.16l.2 60.17c.06 13.4.73 27.4-.52 40.72-9.07-2.17-18.46-2.74-27.51-5.08 1.6-3 3.24-6.2 4.05-9.51 1.34-5.48.78-12.45-2.21-17.33-2.64-4.32-7.26-6.85-12.1-7.97a17.38 17.38 0 0 0-13.36 2.09c-3.88 2.49-6.05 6.56-7 10.98a36.17 36.17 0 0 0-.68 7.39c-.02 5.84 1.31 9.21 4.45 14.08-4.1 1.79-9.23 2.25-13.62 3.17l-30.06 6.5c-6.12 1.3-12.27 2.2-18.3 3.97-1.4.42-3.01.93-4.17 1.86a6.04 6.04 0 0 0-2.3 4.25c-.15 2.72 1.58 4.71 3.23 6.63-7.06 14.98-13.76 30.34-21.09 45.16a168.9 168.9 0 0 1-4.8 9.14c-2.17 3.78-5.48 7.93-6.47 12.2-1.23 5.25 2.26 11.09 5 15.3 6.01 9.19 16.27 16.89 27.1 19.14a43.2 43.2 0 0 0 32.03-6.17c9.17-6.01 16.08-15.24 18.33-26.06.22-1.41.23-2.77.24-4.2-1.62-1.9-3.7-3.27-5.16-5.38-2.46-3.56-4.02-7.9-5.95-11.78-4.4-8.83-8.63-17.75-12.93-26.62-2.65-5.47-5.14-11.08-8.31-16.26 15.12 2.39 31.44.88 46.74.96-.52 22.03-1.26 44.06-2.22 66.08-.44 12.7-.6 25.8-1.5 38.45l-144.9.24-42.45.02c-7.63.01-15.5.46-23.1-.19-2.6-.22-5.3-.66-7.31-2.48-1.74-1.57-2-3.38-2.09-5.6-.28-6.46-.05-13.02-.05-19.48v-35.86l.01-110.91v-81.32l-.01-26.16c0-4.69-.23-9.54.13-14.2a13.04 13.04 0 0 1 3.44-7.95c1.07-1.08 2.67-1.48 4.13-1.68 7.67-1.04 18.9-.6 26.86-.67l52.63-.15Z"/>
  <path fill="#0F548A" d="M148.3 140.29c9.14-.4 18.45-.05 27.62-.06 8.54 0 17.29-.4 25.8.04 1.24.07 2.47.19 3.63.66 1.08 1.22 1.28 2.52 1.29 4.12 0 2.94.52 9.17-1.72 11.24-.72.66-1.54.7-2.46.8-4.04.42-8.39.11-12.45.1l-23.48.02a42.53 42.53 0 0 1-.17 16.84c7.33-1.33 22.88-1.28 29.87 1.05 7.12 2.38 11.99 6.93 15.27 13.59a23.43 23.43 0 0 1 2.26 10.3c-.06 7.5-2.68 15.58-8.16 20.87-3.16 3.05-7.35 4.95-11.6 5.9-6 1.34-12.88.72-19.02.74-7.64.03-15.32.2-22.96.06-1.5-.03-3.67.11-4.66-1.29-.63-.9-.6-2.77-.63-3.87-.13-6.47.16-12.98.22-19.45l.04-31.08c0-5.87.08-11.75-.04-17.62-.06-3.32-.47-6.79-.24-10.1.1-1.3.63-2.01 1.59-2.86Z"/>
  <path fill="#FEFEFD" d="M167.2 188.5c5.09.06 10.18-.05 15.27-.04 3.3.01 6.63.26 9.06 2.82 2 2.12 2.24 4.72 2.2 7.49-.06 4.2-.37 7.34-3.54 10.41-6.03 4.2-16.43 2.16-23.55 3.16 1.44-5.16.64-17.88.56-23.84Z"/>
  <path fill="#0F548A" d="M289.46 139.86c1.57-.15 3.2-.08 4.78-.1-3.17 5.18-7.73 9.98-11.63 14.65a2191.9 2191.9 0 0 1-22.42 26.39c12.55 14.3 23.86 29.53 34.62 45.2-3.82-.06-19.47.87-21.93.17-1.28-.37-2.27-1.46-3.1-2.47-2.43-3-4.4-6.56-6.54-9.79a421.65 421.65 0 0 0-13.22-19.13c-1.36-1.84-3.05-4.63-4.98-5.86-.6-.38-1.07-.4-1.73-.23-.92 1.52-.4 11.85-.39 14.25-.01 4.46 0 8.92.04 13.38.04 2.88.43 6.13-.06 8.95-.47.4-.89.5-1.48.6-2.48.36-14.99.72-16.69-.51-.64-3.11-.42-6.51-.43-9.68 0-5.02-.02-10.03-.08-15.04-.23-13.78-.5-27.51-.5-41.3 0-5.63-.56-11.82.33-17.35.26-.41.44-.6.89-.84 1.99-1.04 15.2-1.46 17.13-.59 2.3 1.05-.42 29.74 1.24 33.9l.47.18c3.16-1.18 17.12-20.86 20.11-24.9 2.2-2.97 4.8-7.53 7.98-9.39 5.88.08 11.73-.18 17.6-.5Zm-67.22 124.27 27.05-.05c4.57 0 9.97-.58 14.43.34 1.96.4 2.93 1.76 3.98 3.34.12 1.9-.04 3.71-.23 5.6-1.82 1.05-3.49 1.97-5.62 2.23-2.96.36-6.08.2-9.07.2h-14.83l-51.32.03-26.8.03c-4.54.01-9.47.41-13.97-.09a5.7 5.7 0 0 1-3.14-1.28c-1.23-1.1-1.42-2.8-1.51-4.36-.1-1.5.16-3.14 1.24-4.25 1.16-1.2 2.99-1.4 4.56-1.55 2.96-.3 6.03-.12 9-.12h15.74l50.49-.07Zm-77.7 37.66c2.96-.38 6.15-.11 9.15-.1h17.26l34.49.01c4.58 0 17.83-.57 21.49.57 1.14.36 2.05 1.62 2.5 2.66.61 1.4.83 3.07.24 4.51-.8 1.94-1.35 2.65-3.28 3.45-3.41.63-7.11.38-10.58.38H199.3l-32.96-.01c-5.7 0-11.45.14-17.15-.04-1.38-.04-2.93-.08-4.28-.42a5.37 5.37 0 0 1-3.25-2.78 6.7 6.7 0 0 1-.5-5c.6-1.62 1.92-2.48 3.39-3.23Zm.88 36.52c4.68-.18 9.4-.06 14.08-.06h25.75c4.38 0 19.47-.54 22.9.27 1.63.4 2.61 1.88 3.5 3.2-.1 1.85-.03 4.21-1.1 5.82-.88 1.33-2.07 1.63-3.56 1.9-11.62.32-23.33.03-34.96.03-8.05 0-16.99.46-24.94-.09-1.2-.08-2.5-.16-3.52-.82a6.8 6.8 0 0 1-2.65-4.3 5.02 5.02 0 0 1 .72-3.88c.94-1.33 2.26-1.78 3.78-2.07Z"/>
  <path fill="#3084C8" d="M254.38 15.33c2.19.05 3.95.65 5.89 1.58 3.36 1.62 6.35 4.05 9.56 5.95a337.1 337.1 0 0 0 20.32 10.97 399.14 399.14 0 0 0 51.58 21.28c8.16 2.7 16.4 4.65 24.72 6.74 15.75 3.96 31.6 7.56 47.72 9.67 5.18.67 10.38 1.27 15.58 1.79 4.59.47 16.5.78 20.03 2.64.97.51 2.15 1.58 2.47 2.67 1.43 4.9.84 20.02.87 25.95.3 56.38-6.24 113.37-23.43 167.22-2.36 7.38-5.82 19.53-9.53 26.07.44-3.13 1.68-5.85 2.46-8.88-.27-.96-.52-2.04-1.11-2.87a6.8 6.8 0 0 0-2.8-2.22c-4.33-1.83-9.47-2.72-14.03-3.86-4.1-1.02-8.22-2.3-12.38-3l.17-107.76c0-3.92-.03-7.69-2.03-11.2-2.29-4.03-8.2-9.23-11.48-12.81a1366.42 1366.42 0 0 0-44.9-47.37c-2.68-2.69-5.92-6.51-9.65-7.67-4.24-1.31-26.1-.7-31.86-.73-17.16-.2-34.32-.3-51.49-.28l-81.02-.04c-9.89-.05-19.78-.05-29.68 0-5.12.02-10.28-.09-15.39.17-6.26.32-11.74 1.52-16.07 6.4-3.3 3.72-4.93 8.07-5.51 12.95-1.14 9.53-.51 19.66-.5 29.25l.02 49.3v77.3c-.02 10.73.04 21.47.2 32.2.09 5.3.02 10.63.36 15.93-14.46-30.22-24.15-65.72-30.1-98.65-5.27-29-8.07-58.38-8.37-87.85-.11-8.77.19-17.52.34-26.3.1-5.31-.74-18.02 2.2-22a6.16 6.16 0 0 1 3.72-2.28c4.88-1.2 10.56-.96 15.6-1.47 8.69-.88 17.27-2.2 25.9-3.6 11.56-1.87 23.15-3.55 34.58-6.15 18.71-4.27 37.11-10.74 54.82-18.09 14.48-6 28.39-13.02 42.12-20.55 5.24-2.88 10.38-6.52 15.7-9.13a12.97 12.97 0 0 1 4.4-1.27Zm-81.63 401.03c14.6-.52 29.32-.13 43.94-.1l66.7-.01c10.31.07 20.63.07 30.95-.02-7.4 4.17-16.24 7.17-22.46 13.13-2.52 2.41-4.37 5.65-4.37 9.21a10.33 10.33 0 0 0 3.05 7.27c4.28 4.24 12.38 3.1 17.99 3.13-3.98 2.99-7.67 6.76-11.45 10.04-6.1 5.2-36.16 29.49-43.44 29.2-4.9-.2-12.4-5.85-16.5-8.57a407.22 407.22 0 0 1-73.27-62.88l8.86-.4Z"/>
  <path fill="#FEFEFD" d="M339.65 244.56a8.49 8.49 0 0 1 6.33 2.44c4.15 3.88 3.62 9.08.84 13.6-1.22 2-2.96 3.87-3.74 6.09-.91 2.56-.68 6.35-.56 9.06.04 1.1.16 2.15 1.24 2.7 2.93 1.5 16.53 3.17 20.61 3.89 8.35 1.46 16.52 3.48 24.83 5.1 4.82.94 9.76 1.43 14.57 2.41.7.14 1.37.25 1.9.75l-.2.3c-1.92.43-12.63-.14-15.69-.15l-29.55-.01c-4.84.01-9.7.2-14.54.1-.02 5.46.35 10.9.6 16.36l.74 18.62c.62 13.79.98 27.61 1.42 41.41l.98 32.75c.14 6.56-.13 13.44.68 19.93 1.53 1.49 6.52 2.24 8.64 2.93 6.54 2.14 19.53 7.09 24.54 11.38a15.34 15.34 0 0 1 3.83 5.08c-14.43-.35-28.86-.48-43.3-.4-8.38 0-16.76.05-25.14.19-5.73.14-12.33.87-17.92.28a4.33 4.33 0 0 1-2.74-1.15c-.23-.6-.34-.92-.1-1.54 2.02-4.98 18.72-10.83 23.92-12.47 3.43-1.08 7.47-1.77 10.68-3.34l.22-.11c.66-4.8.18-10.05.25-14.92.13-9 .5-18.02.7-27.03l2.37-88.08c-7.42-.38-14.9-.1-22.32.1-7.07.2-14.13.35-21.2.45-4.94.09-10.36.64-15.27.1-.65-.06-1.3-.01-1.72-.53 2.63-2.27 23.24-5.04 28.02-5.88 7.06-1.23 14.1-2.59 21.18-3.74 2.67-.43 10.49-.97 12.36-2.28 1.14-2.8.65-9.73.86-13.15-2.4-2.48-5.15-4.24-6.16-7.78-.8-2.83-.29-6.02 1.16-8.56 1.53-2.69 3.77-4.1 6.68-4.9Z"/>
  <path fill="#FEFEFD" d="M357.24 301.34c7.77-.31 17.05-.4 24.77.07-.07 7.69 0 15.38.23 23.07.08 4.04.68 8.79-.06 12.74-.63 3.4-2.53 6.83-4.07 9.9-1.31 2.62-2.66 5.65-4.38 8.02-1.05 1.43-2.4 2.67-3.57 4a6.66 6.66 0 0 0-1.45 2.52c-1.32 4.66 3.05 12.03 5.58 15.74 1.72 2.55 3.82 4.86 5.37 7.51l.17.3a31.77 31.77 0 0 1-2.4 3.85c-5.1 6.62-10.38 12.55-18.14 16.02-.06-8.34.02-16.71-.17-25.05-.6-26.23-1.9-52.45-1.88-78.7Zm-87.43-.93c1.87 1.84 25.5 52.75 27.7 58.15-8.7-.02-17.38-.1-26.08-.28-9.21-.1-18.4.6-27.61.46 2.01-5.18 4.72-10.17 7.05-15.22 3.91-8.68 7.78-17.38 11.6-26.1 2.48-5.63 5.18-11.25 7.34-17Zm58.65-191.81c2.06 1.16 4.08 3.39 5.83 5.03 10.18 9.55 19.18 20.2 28.7 30.37 5.06 5.4 12.4 12.08 16.58 17.84l-.15.4c-7.34.21-14.68.37-22.01.49-6.3.16-13.25.96-19.46-.14-2.44-.43-4.9-1.33-6.7-3.07a8.66 8.66 0 0 1-2.5-4.78c-.8-4.33-.25-9.45-.24-13.87.02-10.75.2-21.53-.05-32.28Z"/>
  <path fill="#FEFEFD" d="M381.74 367.35c12.79.63 25.74.43 38.55.45 7.65.01 16.08.52 23.63-.32-2.7 4.5-5.5 8.3-9.5 11.71-8.15 6.41-17.27 9-27.6 8-9-.88-18.05-6.01-23.74-13-1.34-1.66-3.4-4.05-3.15-6.3.56-.58 1.03-.46 1.8-.54Zm-141.74.2c3.34-.15 6.67.1 10 .18 3.89.08 7.77.1 11.65.08 13-.02 26.08-.45 39.08 0-2.12 4.53-4.49 8.03-8.3 11.27a43.69 43.69 0 0 1-14.06 7.17c-8.86 2.6-17.47.27-25.36-4.12-5.93-3.29-11.07-7.85-13.01-14.58Zm171.25-66.67c.34.32 19.5 37.39 21.16 40.83 2.91 6.03 5.56 12.2 8.29 18.32a93.88 93.88 0 0 1-7.9-.31c-1.4-3.1-2.42-6.37-3.81-9.49-2.92-6.52-6.25-12.88-9.35-19.32-1.58-3.28-3.05-7.38-5.17-10.3-.76-1.05-1.56-1.13-2.77-1.32-.8.18-1.46.38-2.02 1.01-1.75 1.97-2.97 5.88-4.07 8.31l-8.6 18.83c-1.92 4.2-3.61 8.85-6.35 12.59-2.81.06-5.65-.02-8.46-.04 5.2-12.53 11.89-24.3 17.96-36.42 2.2-4.37 4.36-8.76 6.5-13.17 1.5-3.18 2.82-6.48 4.6-9.52Z"/>
</svg>
